<svg width="277" height="289" viewBox="0 0 277 289" fill="none" xmlns="http://www.w3.org/2000/svg">
<g filter="url(#filter0_d)">
<path d="M111.353 91.0726C188.646 39.1593 173.869 91.0726 173.869 91.0726V220H111.353C111.353 220 34.0591 142.986 111.353 91.0726Z" fill="#F5CECE"/>
<path d="M146.552 79.4245C161.323 79.4244 150.083 84.7112 150.083 84.7112L88.5501 125.817C88.5501 125.817 75.3228 129.166 85.0184 120.53C94.714 111.894 131.781 79.4245 146.552 79.4245Z" fill="#C45757"/>
<path d="M143.895 80.7309C164.28 67.4314 191.153 83.0172 190.069 107.511L186.637 185.04C185.641 207.541 161.377 220.906 141.965 209.647L80.8725 174.215C61.4604 162.956 60.6447 135.044 79.3707 122.827L143.895 80.7309Z" fill="#F1E8B5"/>
<path d="M231 162.965C231 176.758 228.142 190.417 222.589 203.16C217.036 215.903 208.896 227.482 198.635 237.236C188.374 246.989 176.193 254.726 162.787 260.005C149.38 265.283 135.011 268 120.5 268C105.989 268 91.4065 242.514 78 237.236C64.5935 231.957 52.6256 246.989 42.3647 237.236C32.1038 227.482 23.9645 215.903 18.4113 203.16C12.8582 190.417 10 176.758 10 162.965C10 162.965 120.5 120.294 120.5 162.965C120.5 205.635 231 162.965 231 162.965Z" fill="#A6D880"/>
<rect x="54" y="129" width="137" height="95" fill="#4272D0" fill-opacity="0.98"/>
</g>
<defs>
<filter id="filter0_d" x="6" y="68" width="229" height="208" filterUnits="userSpaceOnUse" color-interpolation-filters="sRGB">
<feFlood flood-opacity="0" result="BackgroundImageFix"/>
<feColorMatrix in="SourceAlpha" type="matrix" values="0 0 0 0 0 0 0 0 0 0 0 0 0 0 0 0 0 0 127 0"/>
<feOffset dy="4"/>
<feGaussianBlur stdDeviation="2"/>
<feColorMatrix type="matrix" values="0 0 0 0 0 0 0 0 0 0 0 0 0 0 0 0 0 0 0.25 0"/>
<feBlend mode="normal" in2="BackgroundImageFix" result="effect1_dropShadow"/>
<feBlend mode="normal" in="SourceGraphic" in2="effect1_dropShadow" result="shape"/>
</filter>
</defs>
</svg>
